<svg aria-hidden="true" style="position: absolute; width: 0; height: 0; overflow: hidden;" version="1.1" xmlns="http://www.w3.org/2000/svg" xmlns:xlink="http://www.w3.org/1999/xlink">
<defs>
<symbol id="icon-mobile-menu" viewBox="0 0 45 32">
<path d="M2.71 1.264c-0.613 0.090-1.018 0.37-1.266 0.877-0.187 0.379-0.21 0.506-0.203 1.101 0.011 0.988 0.266 1.447 0.983 1.778l0.354 0.163h39.665l0.354-0.163c0.719-0.331 0.972-0.791 0.983-1.783 0.008-0.616-0.013-0.719-0.218-1.119-0.197-0.386-0.282-0.471-0.667-0.667l-0.44-0.226-19.576-0.010c-10.768-0.006-19.752 0.016-19.967 0.048zM2.465 14.106c-0.876 0.267-1.221 0.808-1.221 1.91 0 0.972 0.226 1.426 0.885 1.782l0.299 0.16h39.962l0.299-0.16c0.659-0.355 0.885-0.81 0.885-1.782s-0.226-1.426-0.885-1.782l-0.299-0.16-19.869-0.013c-10.928-0.006-19.954 0.013-20.056 0.045zM2.617 26.891c-0.528 0.104-0.972 0.423-1.189 0.853-0.158 0.314-0.187 0.48-0.192 1.050-0.003 0.611 0.019 0.722 0.222 1.119 0.197 0.386 0.282 0.471 0.667 0.667l0.44 0.226h39.687l0.44-0.226c0.386-0.197 0.471-0.282 0.667-0.667 0.205-0.4 0.226-0.503 0.218-1.119-0.011-0.992-0.264-1.452-0.983-1.783l-0.354-0.163-19.645-0.011c-11.041-0.006-19.792 0.018-19.98 0.054z"></path>
</symbol>
<symbol id="icon-advantages-one" viewBox="0 0 31 32">
<path d="M13.050 0.456l8.31 8.32 0.088-0.088c0.17-0.167 0.404-0.27 0.661-0.27 0.25 0 0.478 0.097 0.647 0.256l-0-0 0.964 0.964c0.337 0.337 0.348 0.85 0.092 1.208l-0.004 0.008-0.158 0.212 6.801 6.801c0.607 0.607 0.607 1.579 0 2.186l-10.411 10.411c-0.607 0.607-1.579 0.607-2.186 0l-4.91-4.91c-0.172 0.215-0.434 0.352-0.728 0.352-0.257 0-0.49-0.105-0.659-0.274l-2.871-2.871c-0.167-0.17-0.27-0.404-0.27-0.661 0-0.25 0.097-0.478 0.256-0.647l-0 0 0.007-0.008 0.085-0.084-8.31-8.31c-0.607-0.607-0.607-1.579 0-2.186l10.411-10.411c0.607-0.607 1.579-0.607 2.186 0v0.001zM20.317 9.818l-1.939-1.938c-0.119-0.123-0.285-0.199-0.469-0.199s-0.35 0.076-0.469 0.198l-3.953 3.953c-0.122 0.121-0.198 0.289-0.198 0.475s0.076 0.354 0.198 0.475l1.931 1.931 0.673-0.673-1.728-1.728 3.544-3.555 1.732 1.738 0.677-0.677zM14.713 15.418l-1.937-1.937c-0.119-0.123-0.285-0.199-0.469-0.199s-0.35 0.076-0.469 0.198l-3.964 3.964c-0.265 0.254-0.265 0.673 0 0.938l1.934 1.934 0.68-0.68-1.733-1.727 3.555-3.544 1.727 1.726 0.676-0.675zM7.53 6.837l3.952 3.952c0.265 0.265 0.684 0.265 0.938-0.011l3.952-3.952c0.123-0.117 0.199-0.281 0.199-0.463 0-0 0-0 0-0v0h0.011c0-0.166-0.066-0.342-0.199-0.475l-3.952-3.952c-0.121-0.123-0.289-0.199-0.475-0.199s-0.354 0.076-0.475 0.198l-0 0-3.952 3.963c-0.265 0.254-0.265 0.673 0 0.938zM1.932 12.435l3.952 3.952c0.265 0.265 0.684 0.265 0.938 0l3.952-3.952c0.123-0.117 0.199-0.281 0.199-0.464 0-0.004-0-0.008-0-0.012v0.001h0.011c0-0.177-0.066-0.342-0.199-0.475l-3.952-3.952c-0.119-0.123-0.285-0.199-0.469-0.199s-0.35 0.076-0.469 0.198l-3.964 3.964c-0.265 0.254-0.265 0.673 0 0.938zM9.587 22.1l2.608 2.609 10.639-14.397-0.723-0.723-12.523 12.511z"></path>
<path d="M13.050 0.456l8.31 8.32 0.088-0.088c0.17-0.167 0.404-0.27 0.661-0.27 0.25 0 0.478 0.097 0.647 0.256l-0-0 0.964 0.964c0.337 0.337 0.348 0.85 0.092 1.208l-0.004 0.008-0.158 0.212 6.801 6.801c0.607 0.607 0.607 1.579 0 2.186l-10.411 10.411c-0.607 0.607-1.579 0.607-2.186 0l-4.91-4.91c-0.172 0.215-0.434 0.352-0.728 0.352-0.257 0-0.49-0.105-0.659-0.274l-2.871-2.871c-0.167-0.17-0.27-0.404-0.27-0.661 0-0.25 0.097-0.478 0.256-0.647l-0 0 0.007-0.008 0.085-0.084-8.31-8.31c-0.607-0.607-0.607-1.579 0-2.186l10.411-10.411c0.607-0.607 1.579-0.607 2.186 0v0.001zM20.317 9.818l-1.939-1.938c-0.119-0.123-0.285-0.199-0.469-0.199s-0.35 0.076-0.469 0.198l-3.953 3.953c-0.122 0.121-0.198 0.289-0.198 0.475s0.076 0.354 0.198 0.475l1.931 1.931 0.673-0.673-1.728-1.728 3.544-3.555 1.732 1.738 0.677-0.677zM14.713 15.418l-1.937-1.937c-0.119-0.123-0.285-0.199-0.469-0.199s-0.35 0.076-0.469 0.198l-3.964 3.964c-0.265 0.254-0.265 0.673 0 0.938l1.934 1.934 0.68-0.68-1.733-1.727 3.555-3.544 1.727 1.726 0.676-0.675zM7.53 6.837l3.952 3.952c0.265 0.265 0.684 0.265 0.938-0.011l3.952-3.952c0.123-0.117 0.199-0.281 0.199-0.463 0-0 0-0 0-0v0h0.011c0-0.166-0.066-0.342-0.199-0.475l-3.952-3.952c-0.121-0.123-0.289-0.199-0.475-0.199s-0.354 0.076-0.475 0.198l-0 0-3.952 3.963c-0.265 0.254-0.265 0.673 0 0.938zM1.932 12.435l3.952 3.952c0.265 0.265 0.684 0.265 0.938 0l3.952-3.952c0.123-0.117 0.199-0.281 0.199-0.464 0-0.004-0-0.008-0-0.012v0.001h0.011c0-0.177-0.066-0.342-0.199-0.475l-3.952-3.952c-0.119-0.123-0.285-0.199-0.469-0.199s-0.35 0.076-0.469 0.198l-3.964 3.964c-0.265 0.254-0.265 0.673 0 0.938zM9.587 22.1l2.608 2.609 10.639-14.397-0.723-0.723-12.523 12.511z"></path>
</symbol>
<symbol id="icon-advantages-three" viewBox="0 0 32 32">
<path d="M15.38 13.841c-0.838-1.011-1.346-2.32-1.346-3.749 0-0.001 0-0.002 0-0.004v0c0-4.944 5.924-9.881 11.847-9.881 3.271 0.001 5.923 2.653 5.924 5.925v0c0 5.925-4.936 11.85-9.885 11.85-0.001 0-0.002 0-0.003 0-1.428 0-2.738-0.508-3.758-1.354l0.010 0.008-14.587 14.59c-0.352 0.328-0.826 0.53-1.347 0.53-1.092 0-1.978-0.886-1.978-1.978 0-0.521 0.202-0.995 0.531-1.349l-0.001 0.001 14.594-14.59z"></path>
</symbol>
<symbol id="icon-advantages-two" viewBox="0 0 32 32">
<path d="M16.007 0.763c-8.384 0-15.244 6.86-15.244 15.244s6.86 15.244 15.244 15.244 15.244-6.86 15.244-15.244-6.86-15.244-15.244-15.244zM16.007 28.203c-6.708 0-12.196-5.488-12.196-12.196s5.488-12.196 12.196-12.196 12.196 5.488 12.196 12.196-5.488 12.196-12.196 12.196z"></path>
<path d="M17.988 14.483h-3.963c-0.763 0-1.372-0.611-1.372-1.372 0-0.763 0.609-1.372 1.372-1.372h5.64c0.915 0 1.525-0.611 1.525-1.525s-0.611-1.524-1.525-1.524h-2.133v-1.372c0-0.915-0.611-1.524-1.525-1.524s-1.524 0.609-1.524 1.524v1.372h-0.457c-2.441 0.002-4.419 1.98-4.421 4.421v0c0.003 2.441 1.981 4.418 4.421 4.42h3.811c0.763 0 1.372 0.611 1.372 1.372 0 0.763-0.609 1.372-1.372 1.372h-5.64c-0.915 0-1.525 0.611-1.525 1.525s0.611 1.524 1.525 1.524h2.287v1.372c0 0.915 0.609 1.524 1.524 1.524s1.525-0.609 1.525-1.524v-1.372h0.457c2.441-0.003 4.418-1.981 4.42-4.421v-0c-0.003-2.441-1.981-4.418-4.421-4.42h-0z"></path>
</symbol>
<symbol id="icon-hero-scroll-down-v" viewBox="0 0 56 32">
<path d="M30.605 21.134c-0.341 0.344-0.746 0.616-1.193 0.803s-0.926 0.282-1.41 0.282-0.963-0.096-1.41-0.282c-0.447-0.186-0.852-0.459-1.193-0.803l-16.793-16.83c-0.341-0.344-0.746-0.616-1.193-0.803s-0.926-0.282-1.41-0.282-0.963 0.096-1.41 0.282c-0.447 0.186-0.852 0.459-1.193 0.803-0.683 0.687-1.066 1.616-1.066 2.585s0.383 1.898 1.066 2.585l16.83 16.83c2.063 2.060 4.858 3.217 7.773 3.217s5.711-1.157 7.773-3.217l16.83-16.83c0.677-0.683 1.059-1.605 1.063-2.567 0.003-0.483-0.090-0.961-0.272-1.408s-0.451-0.853-0.791-1.196c-0.341-0.344-0.746-0.616-1.194-0.803s-0.926-0.282-1.41-0.282-0.963 0.096-1.41 0.282c-0.447 0.186-0.852 0.459-1.193 0.803l-16.793 16.83z"></path>
</symbol>
<symbol id="icon-twitter" viewBox="0 0 32 32">
<path d="M21.134 2.7c-1.139 0.208-1.598 0.346-2.322 0.691-0.882 0.423-1.712 1.046-2.283 1.714-1.115 1.306-1.72 2.751-1.831 4.373l-0.037 0.542-0.219-0.024c-2.027-0.22-3.98-0.869-5.377-1.785-1.424-0.935-3.13-2.599-4.48-4.37-0.42-0.552-0.46-0.592-0.754-0.748-0.282-0.149-0.595-0.135-0.979 0.048-0.427 0.201-0.662 0.482-0.839 1.006-0.29 0.846-0.584 2.248-0.768 3.645-0.131 1.002-0.131 3.522 0 4.499 0.248 1.853 0.67 3.265 1.43 4.786 1.074 2.148 2.592 3.858 4.69 5.281l0.534 0.362-0.414 0.175c-1.622 0.709-3.511 1.121-5.497 1.121-0.014 0-0.028-0-0.042-0h0.002c-0.499 0-0.994 0.025-1.101 0.055-0.303 0.080-0.547 0.284-0.682 0.552l-0.003 0.006c-0.112 0.22-0.136 0.339-0.136 0.694 0 0.368 0.020 0.463 0.144 0.674 0.187 0.319 0.354 0.439 1.19 0.865 2.075 1.054 3.955 1.696 6.111 2.087 1.406 0.255 3.692 0.367 5.077 0.25 1.738-0.148 3.202-0.451 4.663-0.963 4.723-1.657 8.319-4.953 10.367-9.501 1.126-2.503 1.688-5.163 1.749-8.292l0.021-1.113 0.327-0.396c0.983-1.198 1.743-2.621 2.189-4.176l0.020-0.083c0.296-1.038 0.107-1.6-0.638-1.885-0.567-0.217-0.885-0.155-1.636 0.327-0.334 0.212-0.834 0.51-1.113 0.659-0.506 0.272-1.492 0.71-1.598 0.71-0.031 0-0.276-0.167-0.544-0.371-0.795-0.603-1.823-1.063-2.929-1.31-0.387-0.085-1.989-0.156-2.294-0.101zM22.878 5.414c1.027 0.219 1.861 0.692 2.632 1.497 0.32 0.334 0.566 0.454 0.929 0.454 0.241 0 0.819-0.143 1.253-0.308 0.119-0.047-0.067 0.2-0.54 0.714-0.546 0.592-0.614 0.778-0.53 1.456 0.155 1.251-0.004 3.309-0.396 5.13-0.557 2.537-1.635 4.763-3.122 6.653l0.027-0.035c-0.466 0.588-1.737 1.852-2.316 2.302-1.042 0.809-2.458 1.64-3.576 2.101-1.348 0.566-2.912 0.971-4.545 1.14l-0.072 0.006c-0.798 0.077-2.568 0.064-3.416-0.025-0.893-0.095-2.081-0.303-2.482-0.435-0.044-0.015 0.196-0.119 0.534-0.229 0.913-0.3 1.689-0.637 2.429-1.033l-0.080 0.039c0.981-0.499 1.845-1.037 2.065-1.284 0.298-0.334 0.462-1.025 0.323-1.356-0.155-0.371-0.339-0.516-1.178-0.926-3.964-1.941-6.107-4.663-6.832-8.679-0.161-0.895-0.211-1.698-0.179-2.961 0.028-1.086 0.061-1.508 0.172-2.145l0.029-0.171 0.464 0.483c0.629 0.635 1.288 1.236 1.976 1.804l0.045 0.036c1.867 1.501 4.251 2.51 6.86 2.906 0.869 0.131 2.788 0.197 3.117 0.108 0.309-0.077 0.561-0.274 0.711-0.537l0.003-0.006c0.128-0.229 0.133-0.282 0.168-1.598 0.029-1.169 0.051-1.417 0.151-1.761 0.483-1.681 1.832-2.959 3.52-3.331l0.031-0.006c0.432-0.095 1.38-0.096 1.824-0.001z"></path>
</symbol>
<symbol id="icon-logo-chocolate" viewBox="0 0 32 32">
<path d="M14.447 6.093c-0.699 1.146-1.264 2.089-1.254 2.096 0.133 0.096 4.772 2.974 4.806 2.981 0.045 0.011 2.551-4.041 2.546-4.116 0-0.020-1.015-0.667-2.255-1.438-5.569-3.309-6.355-3.806-7.142-4.304l4.729 2.799-0.16-0.101-1.27 2.084zM22.715 8.606c-0.386 0.607-2.436 4.005-2.424 4.016 0.075 0.063 4.49 2.802 4.518 2.802 0.019 0 0.092-0.101 0.161-0.224l0.128-0.223-0.208-0.161c-0.699-0.546-1.517-1.482-1.821-2.087-0.504-1.002-0.527-2.352-0.060-3.62 0.084-0.229 0.153-0.427 0.153-0.439 0-0.024-0.299-0.184-0.343-0.184-0.016 0-0.063 0.055-0.104 0.12zM10.52 12.521c-0.686 1.131-1.226 2.076-1.201 2.1 0.175 0.161 4.791 2.989 4.824 2.954 0.089-0.059 0.899-1.368 1.7-2.684l0.75-1.328c0.049-0.093-0.167-0.242-2.346-1.604-1.321-0.825-2.419-1.498-2.44-1.497-0.023 0.001-0.602 0.927-1.287 2.059zM18.852 14.956c-0.081 0.101-2.468 4.029-2.468 4.061 0 0.057 4.378 2.762 4.424 2.732 0.027-0.016 0.618-0.933 1.314-2.036 1.053-1.668 1.253-2.017 1.193-2.073-0.43-0.319-1.864-1.228-3.307-2.123l-1.088-0.628c-0.027 0.018-0.049 0.040-0.067 0.066l-0.001 0.001zM6.658 18.862c-0.667 1.098-1.225 2.028-1.239 2.067-0.017 0.048 0.768 0.57 2.359 1.566 1.312 0.822 2.403 1.494 2.426 1.494 0.047 0 2.499-4.004 2.499-4.080 0-0.041-4.752-3.047-4.811-3.043-0.011 0.001-0.564 0.899-1.233 1.996zM13.742 23.318c-0.675 1.111-1.227 2.049-1.227 2.084 0 0.036 0.958 0.666 2.128 1.4 1.762 1.105 2.139 1.322 2.195 1.262 0.177-0.188 2.539-4.012 2.5-4.048-0.075-0.103-1.496-1.002-2.924-1.891l-1.431-0.83c-0.007 0.001-0.566 0.911-1.241 2.023z"></path>
</symbol>
<symbol id="icon-mastercard" viewBox="0 0 49 32">
<path fill="#fafafa" style="fill: var(--color1, #fafafa)" d="M6.095 0.762h36.571c2.946 0 5.333 2.388 5.333 5.333v19.81c0 2.946-2.388 5.333-5.333 5.333h-36.571c-2.946 0-5.333-2.388-5.333-5.333v-19.81c0-2.946 2.388-5.333 5.333-5.333z"></path>
<path fill="#ed0006" style="fill: var(--color2, #ed0006)" d="M24.381 23.29c-1.771 1.462-4.068 2.345-6.578 2.345-5.601 0-10.141-4.396-10.141-9.818s4.54-9.818 10.141-9.818c2.51 0 4.807 0.883 6.578 2.345 1.771-1.462 4.068-2.345 6.578-2.345 5.601 0 10.141 4.395 10.141 9.818s-4.54 9.818-10.141 9.818c-2.51 0-4.807-0.883-6.578-2.345z"></path>
<path fill="#f9a000" style="fill: var(--color3, #f9a000)" d="M24.381 23.29c2.18-1.801 3.563-4.48 3.563-7.472s-1.383-5.672-3.563-7.472c1.771-1.462 4.068-2.345 6.578-2.345 5.601 0 10.141 4.395 10.141 9.818s-4.54 9.818-10.141 9.818c-2.51 0-4.807-0.883-6.578-2.345z"></path>
<path fill="#ff5e00" style="fill: var(--color4, #ff5e00)" d="M24.381 23.29c2.18-1.801 3.563-4.48 3.563-7.472s-1.383-5.671-3.563-7.472c-2.18 1.801-3.563 4.48-3.563 7.472s1.383 5.672 3.563 7.472z"></path>
<path fill="none" stroke="#fafafa" style="stroke: var(--color1, #fafafa)" stroke-linejoin="miter" stroke-linecap="butt" stroke-miterlimit="4" stroke-width="1.5238" d="M6.095 0.762h36.571c2.946 0 5.333 2.388 5.333 5.333v19.81c0 2.946-2.388 5.333-5.333 5.333h-36.571c-2.946 0-5.333-2.388-5.333-5.333v-19.81c0-2.946 2.388-5.333 5.333-5.333z"></path>
</symbol>
<symbol id="icon-close-modal" viewBox="0 0 32 32">
<path d="M32.047 3.229l-3.229-3.229-12.795 12.795-12.795-12.795-3.229 3.229 12.795 12.795-12.795 12.795 3.229 3.229 12.795-12.795 12.795 12.795 3.229-3.229-12.795-12.795 12.795-12.795z"></path>
</symbol>

<symbol id="i-close-button" viewBox="0 0 32 32">
      <path d="M32 3.224l-3.224-3.224-12.776 12.776-12.776-12.776-3.224 3.224 12.776 12.776-12.776 12.776 3.224 3.224 12.776-12.776 12.776 12.776 3.224-3.224-12.776-12.776 12.776-12.776z"></path>
</symbol>
<symbol id="i-flag" viewBox="0 0 40 32">
      <path fill="#FFD700" style="fill: var(--color1, #FFD700)" d="M40.209 0.495h-39.902v29.694h39.902v-29.694z"></path>
      <path fill="#0057B7" style="fill: var(--color2, #0057B7)" d="M0.307 0.495h39.902v14.848h-39.902v-14.848z"></path>
</symbol>

<symbol id="icon-instagram" viewBox="0 0 32 32">
<path d="M31.976 9.41c-0.074-1.7-0.35-2.871-0.744-3.883-0.424-1.112-1.054-2.060-1.849-2.839l-0.001-0.001c-0.78-0.791-1.725-1.418-2.779-1.824l-0.054-0.018c-1.020-0.394-2.181-0.67-3.881-0.744-1.716-0.080-2.263-0.1-6.604-0.1-4.347 0-4.891 0.020-6.598 0.094-1.7 0.074-2.869 0.35-3.881 0.744-1.112 0.424-2.060 1.054-2.839 1.849l-0.001 0.001c-0.792 0.78-1.419 1.725-1.826 2.779l-0.018 0.054c-0.394 1.020-0.668 2.181-0.744 3.881-0.080 1.714-0.1 2.261-0.1 6.604 0 4.347 0.020 4.891 0.094 6.598 0.074 1.7 0.35 2.871 0.744 3.883 0.406 1.076 1.038 2.038 1.85 2.839 0.8 0.812 1.77 1.444 2.833 1.844 1.020 0.394 2.181 0.67 3.883 0.744 1.706 0.076 2.251 0.094 6.598 0.094 4.345 0 4.889-0.020 6.596-0.094 1.7-0.074 2.871-0.35 3.883-0.744 2.157-0.85 3.833-2.526 4.664-4.628l0.019-0.055c0.394-1.020 0.67-2.181 0.744-3.883 0.076-1.706 0.094-2.251 0.094-6.598 0-4.345-0.006-4.889-0.080-6.596zM29.095 22.477c-0.070 1.564-0.332 2.409-0.552 2.971-0.551 1.401-1.638 2.489-3.003 3.028l-0.036 0.013c-0.562 0.218-1.412 0.48-2.969 0.548-1.688 0.076-2.195 0.094-6.466 0.094s-4.783-0.020-6.466-0.094c-1.564-0.068-2.409-0.33-2.971-0.55-0.721-0.269-1.335-0.676-1.837-1.193l-0.001-0.001c-0.517-0.504-0.923-1.118-1.183-1.804l-0.011-0.034c-0.22-0.562-0.48-1.412-0.55-2.969-0.074-1.688-0.094-2.197-0.094-6.466 0-4.271 0.020-4.783 0.094-6.466 0.070-1.564 0.332-2.409 0.55-2.971 0.256-0.694 0.664-1.324 1.2-1.838 0.52-0.532 1.144-0.938 1.84-1.194 0.56-0.22 1.412-0.48 2.969-0.55 1.688-0.074 2.195-0.094 6.466-0.094 4.277 0 4.781 0.020 6.466 0.094 1.562 0.070 2.407 0.332 2.969 0.55 0.694 0.256 1.326 0.662 1.84 1.194 0.53 0.52 0.936 1.144 1.192 1.84 0.22 0.56 0.482 1.41 0.55 2.969 0.076 1.688 0.094 2.195 0.094 6.466s-0.018 4.771-0.092 6.458z"></path>
<path d="M16.064 7.784c-4.463 0.102-8.043 3.744-8.043 8.222s3.579 8.12 8.033 8.222l0.009 0c4.463-0.102 8.043-3.744 8.043-8.222s-3.579-8.12-8.033-8.222l-0.009-0zM16.064 21.341c-2.947 0-5.335-2.389-5.335-5.335s2.389-5.335 5.335-5.335v0c2.947 0 5.335 2.389 5.335 5.335s-2.389 5.335-5.335 5.335v0zM26.53 7.46c0 1.061-0.86 1.92-1.92 1.92s-1.92-0.86-1.92-1.92v0c0-1.061 0.86-1.92 1.92-1.92s1.92 0.86 1.92 1.92v0z"></path>
</symbol>


<symbol id="hero-scroll" viewBox="0 0 32 32">
<path d="M16 32c8.837 0 16-7.163 16-16s-7.163-16-16-16c-8.837 0-16 7.163-16 16s7.163 16 16 16z"></path>
<path d="M16.541 17.067c-0.071 0.071-0.155 0.128-0.248 0.167s-0.192 0.059-0.293 0.059-0.2-0.020-0.293-0.059c-0.093-0.039-0.177-0.095-0.248-0.167l-3.49-3.497c-0.071-0.071-0.155-0.128-0.248-0.167s-0.192-0.059-0.293-0.059c-0.101 0-0.2 0.020-0.293 0.059s-0.177 0.095-0.248 0.167c-0.142 0.143-0.222 0.336-0.222 0.537s0.080 0.394 0.222 0.537l3.497 3.497c0.429 0.428 1.009 0.668 1.615 0.668s1.187-0.24 1.615-0.668l3.497-3.497c0.141-0.142 0.22-0.334 0.221-0.533 0.001-0.1-0.019-0.2-0.057-0.292s-0.094-0.177-0.164-0.248c-0.071-0.071-0.155-0.128-0.248-0.167s-0.192-0.059-0.293-0.059-0.2 0.020-0.293 0.059c-0.093 0.039-0.177 0.095-0.248 0.167l-3.49 3.497z"></path>
</symbol>
<symbol id="icon-12" viewBox="0 0 32 32">
<path fill="#fd9222"fill: whitestyle="fill: var(--color1, #fd9222)" d="M16.947 17.867c-0.124 0.125-0.271 0.224-0.434 0.292s-0.337 0.103-0.513 0.103c-0.176 0-0.35-0.035-0.513-0.103s-0.31-0.167-0.434-0.292l-6.107-6.12c-0.124-0.125-0.271-0.224-0.434-0.292s-0.337-0.103-0.513-0.103c-0.176 0-0.35 0.035-0.513 0.103s-0.31 0.167-0.434 0.292c-0.248 0.25-0.388 0.588-0.388 0.94s0.139 0.69 0.388 0.94l6.12 6.12c0.75 0.749 1.767 1.17 2.827 1.17s2.077-0.421 2.827-1.17l6.12-6.12c0.246-0.248 0.385-0.584 0.387-0.933 0.001-0.175-0.033-0.349-0.099-0.512s-0.164-0.31-0.288-0.435c-0.124-0.125-0.271-0.224-0.434-0.292s-0.337-0.103-0.513-0.103-0.35 0.035-0.513 0.103c-0.162 0.068-0.31 0.167-0.434 0.292l-6.107 6.12z"></path>
</symbol>

<symbol id="scroll-btn" viewBox="0 0 32 32">
<path d="M16.947 17.867c-0.124 0.125-0.271 0.224-0.434 0.292s-0.337 0.103-0.513 0.103-0.35-0.035-0.513-0.103c-0.162-0.068-0.31-0.167-0.434-0.292l-6.107-6.12c-0.124-0.125-0.271-0.224-0.434-0.292s-0.337-0.103-0.513-0.103c-0.176 0-0.35 0.035-0.513 0.103s-0.31 0.167-0.434 0.292c-0.248 0.25-0.388 0.588-0.388 0.94s0.139 0.69 0.388 0.94l6.12 6.12c0.75 0.749 1.767 1.17 2.827 1.17s2.077-0.421 2.827-1.17l6.12-6.12c0.246-0.248 0.385-0.584 0.387-0.933 0.001-0.175-0.033-0.349-0.099-0.512s-0.164-0.31-0.288-0.435c-0.124-0.125-0.271-0.224-0.434-0.292s-0.337-0.103-0.513-0.103-0.35 0.035-0.513 0.103c-0.162 0.068-0.31 0.167-0.434 0.292l-6.107 6.12z"></path>
</symbol>

</defs>
</svg>
