<svg xmlns="http://www.w3.org/2000/svg" width="28" height="20" fill="none"><path d="M1.693.794c-.383.056-.636.231-.791.548-.117.237-.131.316-.127.688.007.617.166.904.614 1.111l.221.102h24.78l.221-.102c.449-.207.607-.494.614-1.114.005-.385-.008-.449-.136-.699-.123-.241-.176-.294-.417-.417L26.397.77 14.167.764C7.44.76 1.827.774 1.693.794M1.54 8.817c-.547.167-.763.505-.763 1.193 0 .607.141.891.553 1.113l.187.1h24.966l.187-.1c.412-.222.553-.506.553-1.113s-.141-.891-.553-1.113l-.187-.1-12.413-.008c-6.827-.004-12.466.008-12.53.028m.095 7.987c-.33.065-.607.264-.743.533-.099.196-.117.3-.12.656-.002.382.012.451.139.699.123.241.176.294.417.417l.275.141h24.794l.275-.141c.241-.123.294-.176.417-.417.128-.25.141-.314.136-.699-.007-.62-.165-.907-.614-1.114l-.221-.102-12.273-.007c-6.898-.004-12.365.011-12.482.034" fill-rule="evenodd" fill="#000"/></svg>