<svg xmlns="http://www.w3.org/2000/svg" width="24" height="24" fill="none"><path d="M15.84 2.024c-.854.156-1.198.259-1.74.518-.661.317-1.283.784-1.711 1.285-.836.979-1.289 2.062-1.372 3.278l-.028.406-.164-.018c-1.519-.165-2.983-.651-4.03-1.338-1.067-.701-2.346-1.948-3.358-3.275-.315-.414-.345-.444-.565-.561-.211-.112-.446-.101-.734.036-.32.151-.496.361-.629.754-.217.634-.438 1.685-.576 2.732-.098.751-.098 2.64 0 3.372.186 1.389.502 2.447 1.072 3.587.805 1.61 1.943 2.892 3.515 3.958l.4.271-.31.131a10.525 10.525 0 0 1-4.15.84c-.374 0-.745.019-.825.041a.794.794 0 0 0-.513.418c-.084.165-.102.254-.102.52 0 .276.015.347.108.505.14.239.265.329.892.648 1.555.79 2.964 1.271 4.58 1.564 1.054.191 2.767.275 3.805.187 1.303-.111 2.4-.338 3.495-.722 3.54-1.242 6.235-3.712 7.77-7.121.844-1.876 1.265-3.87 1.311-6.215l.016-.834.245-.297a8.8 8.8 0 0 0 1.656-3.192c.222-.778.08-1.199-.478-1.413-.425-.163-.663-.116-1.226.245-.25.159-.625.382-.834.494-.379.204-1.118.532-1.198.532-.023 0-.207-.125-.408-.278-.596-.452-1.366-.797-2.195-.982-.29-.064-1.491-.117-1.719-.076m1.307 2.034c.77.164 1.395.519 1.973 1.122.24.25.424.34.696.34.181 0 .614-.107.939-.231.089-.035-.05.15-.405.535-.409.444-.46.583-.397 1.091.116.938-.003 2.48-.297 3.845a12.23 12.23 0 0 1-2.32 4.96c-.349.441-1.302 1.388-1.736 1.725-.781.606-1.842 1.229-2.68 1.575a12.496 12.496 0 0 1-3.46.859c-.598.058-1.925.048-2.56-.019-.669-.071-1.56-.227-1.86-.326-.033-.011.147-.089.4-.172a11.257 11.257 0 0 0 1.76-.745c.735-.374 1.383-.777 1.548-.962.223-.25.346-.768.242-1.016-.116-.278-.254-.387-.883-.694C5.136 14.49 3.53 12.45 2.986 9.44c-.121-.671-.158-1.273-.134-2.219.021-.814.046-1.13.129-1.608l.022-.128.348.362a19.922 19.922 0 0 0 1.515 1.379c1.399 1.125 3.186 1.881 5.142 2.178.651.098 2.09.148 2.336.081a.842.842 0 0 0 .535-.407c.096-.172.1-.211.126-1.198.022-.876.038-1.062.113-1.32a3.535 3.535 0 0 1 2.662-2.501c.324-.071 1.034-.072 1.367-.001" fill-rule="evenodd" fill="#000"/></svg>